<svg xmlns="http://www.w3.org/2000/svg" viewBox="0 0 1600 1000" width="1600" height="1000" role="img"><rect width="1600" height="1000" fill="#0b0b0c"/><g transform="rotate(-24 800 500)"><rect x="-1000.0" y="-1000" width="136.0" height="3000" fill="#ff4b1f" opacity="0.90"/><rect x="-704.0" y="-1000" width="136.0" height="3000" fill="#f4f2ed" opacity="0.85"/><rect x="-408.0" y="-1000" width="72.0" height="3000" fill="#f4f2ed" opacity="0.85"/><rect x="-176.0" y="-1000" width="72.0" height="3000" fill="#f4f2ed" opacity="0.85"/><rect x="-8.0" y="-1000" width="32.0" height="3000" fill="#f4f2ed" opacity="0.85"/><rect x="184.0" y="-1000" width="72.0" height="3000" fill="#ff4b1f" opacity="0.90"/><rect x="416.0" y="-1000" width="72.0" height="3000" fill="#f4f2ed" opacity="0.85"/><rect x="584.0" y="-1000" width="32.0" height="3000" fill="#f4f2ed" opacity="0.85"/><rect x="776.0" y="-1000" width="72.0" height="3000" fill="#f4f2ed" opacity="0.85"/><rect x="1008.0" y="-1000" width="72.0" height="3000" fill="#f4f2ed" opacity="0.85"/><rect x="1240.0" y="-1000" width="32.0" height="3000" fill="#ff4b1f" opacity="0.90"/><rect x="1432.0" y="-1000" width="32.0" height="3000" fill="#f4f2ed" opacity="0.85"/><rect x="1560.0" y="-1000" width="136.0" height="3000" fill="#f4f2ed" opacity="0.85"/><rect x="1856.0" y="-1000" width="136.0" height="3000" fill="#f4f2ed" opacity="0.85"/><rect x="2040.0" y="-1000" width="32.0" height="3000" fill="#f4f2ed" opacity="0.85"/><rect x="2168.0" y="-1000" width="72.0" height="3000" fill="#ff4b1f" opacity="0.90"/><rect x="2336.0" y="-1000" width="72.0" height="3000" fill="#f4f2ed" opacity="0.85"/><rect x="2456.0" y="-1000" width="32.0" height="3000" fill="#f4f2ed" opacity="0.85"/><rect x="2584.0" y="-1000" width="72.0" height="3000" fill="#f4f2ed" opacity="0.85"/></g></svg>