<svg xmlns="http://www.w3.org/2000/svg" viewBox="0 0 800 1000" width="800" height="1000" role="img"><rect width="800" height="1000" fill="#101014"/><path d="M444.0 520.0 A44.0 44.0 0 0 1 356.0 520.0" fill="none" stroke="#f4f2ed" stroke-width="9.6" stroke-linecap="round"/><path d="M476.2 476.0 A88.0 88.0 0 1 1 313.3 535.3" fill="none" stroke="#f4f2ed" stroke-width="9.6" stroke-linecap="round"/><path d="M532.0 520.0 A132.0 132.0 0 0 1 268.0 520.0" fill="none" stroke="#ff4b1f" stroke-width="9.6" stroke-linecap="round"/><path d="M552.4 432.0 A176.0 176.0 0 1 1 226.7 550.6" fill="none" stroke="#f4f2ed" stroke-width="9.6" stroke-linecap="round"/><path d="M620.0 520.0 A220.0 220.0 0 0 1 180.0 520.0" fill="none" stroke="#f4f2ed" stroke-width="9.6" stroke-linecap="round"/><path d="M151.9 429.7 A264.0 264.0 0 0 1 648.1 429.7" fill="none" stroke="#ff4b1f" stroke-width="9.6" stroke-linecap="round"/><path d="M708.0 520.0 A308.0 308.0 0 0 1 92.0 520.0" fill="none" stroke="#f4f2ed" stroke-width="9.6" stroke-linecap="round"/><path d="M704.8 344.0 A352.0 352.0 0 1 1 53.3 581.1" fill="none" stroke="#f4f2ed" stroke-width="9.6" stroke-linecap="round"/><path d="M796.0 520.0 A396.0 396.0 0 0 1 4.0 520.0" fill="none" stroke="#ff4b1f" stroke-width="9.6" stroke-linecap="round"/></svg>