<svg xmlns="http://www.w3.org/2000/svg" viewBox="0 0 1600 1000" width="1600" height="1000" role="img"><rect width="1600" height="1000" fill="#f0efeb"/><rect x="76.5" y="17.8" width="75.6" height="75.6" fill="none" stroke="#0b0b0c" stroke-width="6.4" transform="rotate(30 114.3 55.6)" opacity="0.8"/><rect x="305.1" y="17.8" width="75.6" height="75.6" fill="none" stroke="#0f6b4f" stroke-width="6.4" transform="rotate(30 342.9 55.6)" opacity="0.8"/><rect x="533.7" y="17.8" width="75.6" height="75.6" fill="none" stroke="#0b0b0c" stroke-width="6.4" transform="rotate(15 571.4 55.6)" opacity="0.8"/><rect x="762.2" y="17.8" width="75.6" height="75.6" fill="none" stroke="#0b0b0c" stroke-width="6.4" transform="rotate(0 800.0 55.6)" opacity="0.8"/><rect x="990.8" y="17.8" width="75.6" height="75.6" fill="none" stroke="#0f6b4f" stroke-width="6.4" transform="rotate(30 1028.6 55.6)" opacity="0.8"/><rect x="1219.4" y="17.8" width="75.6" height="75.6" fill="none" stroke="#0b0b0c" stroke-width="6.4" transform="rotate(15 1257.1 55.6)" opacity="0.8"/><rect x="1447.9" y="17.8" width="75.6" height="75.6" fill="none" stroke="#0b0b0c" stroke-width="6.4" transform="rotate(15 1485.7 55.6)" opacity="0.8"/><rect x="76.5" y="128.9" width="75.6" height="75.6" fill="none" stroke="#0b0b0c" stroke-width="6.4" transform="rotate(0 114.3 166.7)" opacity="0.8"/><rect x="305.1" y="128.9" width="75.6" height="75.6" fill="none" stroke="#0b0b0c" stroke-width="6.4" transform="rotate(0 342.9 166.7)" opacity="0.8"/><rect x="533.7" y="128.9" width="75.6" height="75.6" fill="none" stroke="#0b0b0c" stroke-width="6.4" transform="rotate(15 571.4 166.7)" opacity="0.8"/><rect x="762.2" y="128.9" width="75.6" height="75.6" fill="none" stroke="#0b0b0c" stroke-width="6.4" transform="rotate(30 800.0 166.7)" opacity="0.8"/><rect x="990.8" y="128.9" width="75.6" height="75.6" fill="none" stroke="#0f6b4f" stroke-width="6.4" transform="rotate(15 1028.6 166.7)" opacity="0.8"/><rect x="1219.4" y="128.9" width="75.6" height="75.6" fill="none" stroke="#0b0b0c" stroke-width="6.4" transform="rotate(45 1257.1 166.7)" opacity="0.8"/><rect x="1447.9" y="128.9" width="75.6" height="75.6" fill="none" stroke="#0b0b0c" stroke-width="6.4" transform="rotate(0 1485.7 166.7)" opacity="0.8"/><rect x="76.5" y="240.0" width="75.6" height="75.6" fill="none" stroke="#0b0b0c" stroke-width="6.4" transform="rotate(30 114.3 277.8)" opacity="0.8"/><rect x="305.1" y="240.0" width="75.6" height="75.6" fill="none" stroke="#0f6b4f" stroke-width="6.4" transform="rotate(0 342.9 277.8)" opacity="0.8"/><rect x="533.7" y="240.0" width="75.6" height="75.6" fill="none" stroke="#0f6b4f" stroke-width="6.4" transform="rotate(0 571.4 277.8)" opacity="0.8"/><rect x="762.2" y="240.0" width="75.6" height="75.6" fill="none" stroke="#0b0b0c" stroke-width="6.4" transform="rotate(30 800.0 277.8)" opacity="0.8"/><rect x="990.8" y="240.0" width="75.6" height="75.6" fill="none" stroke="#0b0b0c" stroke-width="6.4" transform="rotate(30 1028.6 277.8)" opacity="0.8"/><rect x="1219.4" y="240.0" width="75.6" height="75.6" fill="none" stroke="#0b0b0c" stroke-width="6.4" transform="rotate(0 1257.1 277.8)" opacity="0.8"/><rect x="1447.9" y="240.0" width="75.6" height="75.6" fill="none" stroke="#0b0b0c" stroke-width="6.4" transform="rotate(15 1485.7 277.8)" opacity="0.8"/><rect x="76.5" y="351.1" width="75.6" height="75.6" fill="none" stroke="#0b0b0c" stroke-width="6.4" transform="rotate(0 114.3 388.9)" opacity="0.8"/><rect x="305.1" y="351.1" width="75.6" height="75.6" fill="none" stroke="#0b0b0c" stroke-width="6.4" transform="rotate(30 342.9 388.9)" opacity="0.8"/><rect x="533.7" y="351.1" width="75.6" height="75.6" fill="none" stroke="#0f6b4f" stroke-width="6.4" transform="rotate(15 571.4 388.9)" opacity="0.8"/><rect x="762.2" y="351.1" width="75.6" height="75.6" fill="none" stroke="#0f6b4f" stroke-width="6.4" transform="rotate(15 800.0 388.9)" opacity="0.8"/><rect x="990.8" y="351.1" width="75.6" height="75.6" fill="none" stroke="#0b0b0c" stroke-width="6.4" transform="rotate(15 1028.6 388.9)" opacity="0.8"/><rect x="1219.4" y="351.1" width="75.6" height="75.6" fill="none" stroke="#0b0b0c" stroke-width="6.4" transform="rotate(30 1257.1 388.9)" opacity="0.8"/><rect x="1447.9" y="351.1" width="75.6" height="75.6" fill="none" stroke="#0b0b0c" stroke-width="6.4" transform="rotate(30 1485.7 388.9)" opacity="0.8"/><rect x="76.5" y="462.2" width="75.6" height="75.6" fill="none" stroke="#0b0b0c" stroke-width="6.4" transform="rotate(30 114.3 500.0)" opacity="0.8"/><rect x="305.1" y="462.2" width="75.6" height="75.6" fill="none" stroke="#0b0b0c" stroke-width="6.4" transform="rotate(30 342.9 500.0)" opacity="0.8"/><rect x="533.7" y="462.2" width="75.6" height="75.6" fill="none" stroke="#0b0b0c" stroke-width="6.4" transform="rotate(0 571.4 500.0)" opacity="0.8"/><rect x="762.2" y="462.2" width="75.6" height="75.6" fill="none" stroke="#0f6b4f" stroke-width="6.4" transform="rotate(45 800.0 500.0)" opacity="0.8"/><rect x="990.8" y="462.2" width="75.6" height="75.6" fill="none" stroke="#0f6b4f" stroke-width="6.4" transform="rotate(30 1028.6 500.0)" opacity="0.8"/><rect x="1219.4" y="462.2" width="75.6" height="75.6" fill="none" stroke="#0b0b0c" stroke-width="6.4" transform="rotate(15 1257.1 500.0)" opacity="0.8"/><rect x="1447.9" y="462.2" width="75.6" height="75.6" fill="none" stroke="#0b0b0c" stroke-width="6.4" transform="rotate(15 1485.7 500.0)" opacity="0.8"/><rect x="76.5" y="573.3" width="75.6" height="75.6" fill="none" stroke="#0b0b0c" stroke-width="6.4" transform="rotate(0 114.3 611.1)" opacity="0.8"/><rect x="305.1" y="573.3" width="75.6" height="75.6" fill="none" stroke="#0f6b4f" stroke-width="6.4" transform="rotate(15 342.9 611.1)" opacity="0.8"/><rect x="533.7" y="573.3" width="75.6" height="75.6" fill="none" stroke="#0b0b0c" stroke-width="6.4" transform="rotate(0 571.4 611.1)" opacity="0.8"/><rect x="762.2" y="573.3" width="75.6" height="75.6" fill="none" stroke="#0b0b0c" stroke-width="6.4" transform="rotate(30 800.0 611.1)" opacity="0.8"/><rect x="990.8" y="573.3" width="75.6" height="75.6" fill="none" stroke="#0b0b0c" stroke-width="6.4" transform="rotate(0 1028.6 611.1)" opacity="0.8"/><rect x="1219.4" y="573.3" width="75.6" height="75.6" fill="none" stroke="#0b0b0c" stroke-width="6.4" transform="rotate(15 1257.1 611.1)" opacity="0.8"/><rect x="1447.9" y="573.3" width="75.6" height="75.6" fill="none" stroke="#0b0b0c" stroke-width="6.4" transform="rotate(45 1485.7 611.1)" opacity="0.8"/><rect x="76.5" y="684.4" width="75.6" height="75.6" fill="none" stroke="#0b0b0c" stroke-width="6.4" transform="rotate(45 114.3 722.2)" opacity="0.8"/><rect x="305.1" y="684.4" width="75.6" height="75.6" fill="none" stroke="#0b0b0c" stroke-width="6.4" transform="rotate(45 342.9 722.2)" opacity="0.8"/><rect x="533.7" y="684.4" width="75.6" height="75.6" fill="none" stroke="#0b0b0c" stroke-width="6.4" transform="rotate(45 571.4 722.2)" opacity="0.8"/><rect x="762.2" y="684.4" width="75.6" height="75.6" fill="none" stroke="#0f6b4f" stroke-width="6.4" transform="rotate(15 800.0 722.2)" opacity="0.8"/><rect x="990.8" y="684.4" width="75.6" height="75.6" fill="none" stroke="#0b0b0c" stroke-width="6.4" transform="rotate(15 1028.6 722.2)" opacity="0.8"/><rect x="1219.4" y="684.4" width="75.6" height="75.6" fill="none" stroke="#0b0b0c" stroke-width="6.4" transform="rotate(15 1257.1 722.2)" opacity="0.8"/><rect x="1447.9" y="684.4" width="75.6" height="75.6" fill="none" stroke="#0f6b4f" stroke-width="6.4" transform="rotate(0 1485.7 722.2)" opacity="0.8"/><rect x="76.5" y="795.6" width="75.6" height="75.6" fill="none" stroke="#0b0b0c" stroke-width="6.4" transform="rotate(15 114.3 833.3)" opacity="0.8"/><rect x="305.1" y="795.6" width="75.6" height="75.6" fill="none" stroke="#0b0b0c" stroke-width="6.4" transform="rotate(0 342.9 833.3)" opacity="0.8"/><rect x="533.7" y="795.6" width="75.6" height="75.6" fill="none" stroke="#0b0b0c" stroke-width="6.4" transform="rotate(45 571.4 833.3)" opacity="0.8"/><rect x="762.2" y="795.6" width="75.6" height="75.6" fill="none" stroke="#0f6b4f" stroke-width="6.4" transform="rotate(0 800.0 833.3)" opacity="0.8"/><rect x="990.8" y="795.6" width="75.6" height="75.6" fill="none" stroke="#0b0b0c" stroke-width="6.4" transform="rotate(30 1028.6 833.3)" opacity="0.8"/><rect x="1219.4" y="795.6" width="75.6" height="75.6" fill="none" stroke="#0b0b0c" stroke-width="6.4" transform="rotate(30 1257.1 833.3)" opacity="0.8"/><rect x="1447.9" y="795.6" width="75.6" height="75.6" fill="none" stroke="#0b0b0c" stroke-width="6.4" transform="rotate(30 1485.7 833.3)" opacity="0.8"/><rect x="76.5" y="906.7" width="75.6" height="75.6" fill="none" stroke="#0b0b0c" stroke-width="6.4" transform="rotate(15 114.3 944.4)" opacity="0.8"/><rect x="305.1" y="906.7" width="75.6" height="75.6" fill="none" stroke="#0b0b0c" stroke-width="6.4" transform="rotate(30 342.9 944.4)" opacity="0.8"/><rect x="533.7" y="906.7" width="75.6" height="75.6" fill="none" stroke="#0b0b0c" stroke-width="6.4" transform="rotate(30 571.4 944.4)" opacity="0.8"/><rect x="762.2" y="906.7" width="75.6" height="75.6" fill="none" stroke="#0f6b4f" stroke-width="6.4" transform="rotate(0 800.0 944.4)" opacity="0.8"/><rect x="990.8" y="906.7" width="75.6" height="75.6" fill="none" stroke="#0b0b0c" stroke-width="6.4" transform="rotate(30 1028.6 944.4)" opacity="0.8"/><rect x="1219.4" y="906.7" width="75.6" height="75.6" fill="none" stroke="#0f6b4f" stroke-width="6.4" transform="rotate(15 1257.1 944.4)" opacity="0.8"/><rect x="1447.9" y="906.7" width="75.6" height="75.6" fill="none" stroke="#0b0b0c" stroke-width="6.4" transform="rotate(15 1485.7 944.4)" opacity="0.8"/></svg>